<svg id="Layer_1" data-name="Layer 1" xmlns="http://www.w3.org/2000/svg" viewBox="0 0 622 300"><defs><style>.cls-1{stroke:#000;stroke-miterlimit:10;stroke-width:3px;}</style></defs><title>cane-realty</title><path d="M371.3,126.2a44.7,44.7,0,0,0-5.2-12.1,44,44,0,0,0-8.3-9.8A37.3,37.3,0,0,0,347,97.7a33.8,33.8,0,0,0-12.7-2.4,32.7,32.7,0,0,0-16.6,4.1,38.1,38.1,0,0,0-12.2,11.1A50.7,50.7,0,0,0,298,126a60.6,60.6,0,0,0,.1,36.1,44.2,44.2,0,0,0,7.9,14.7,37.8,37.8,0,0,0,12.4,10,35.6,35.6,0,0,0,16.1,3.6,34.1,34.1,0,0,0,13.2-2.6,39,39,0,0,0,10.9-6.7,41.3,41.3,0,0,0,8.1-9.6,36.1,36.1,0,0,0,4.5-11.3h1.6l-.4,29.6h-1.6a35.3,35.3,0,0,0-3.4-4.1c-1.1-1.3-2-1.9-2.4-1.9a12.5,12.5,0,0,0-2.4,1.4,44.1,44.1,0,0,1-6.2,3.1,58.1,58.1,0,0,1-23.2,4.2,66.6,66.6,0,0,1-22.6-3.5,49.5,49.5,0,0,1-17.2-10.1,44.4,44.4,0,0,1-10.9-15.7,51.6,51.6,0,0,1-3.7-20c0-1.6.1-3.4.3-5.5a42,42,0,0,1,1.2-6.6,62,62,0,0,1,2.4-7.3,57.6,57.6,0,0,1,4-7.8,51,51,0,0,1,7-8.8,47,47,0,0,1,9.9-7.3,55.1,55.1,0,0,1,12.8-5.1,71.9,71.9,0,0,1,30.1-.4,59.9,59.9,0,0,1,10.1,3.3,31.5,31.5,0,0,1,6.2,3.2,12.4,12.4,0,0,0,2.5,1.5,2.9,2.9,0,0,0,1-.6l1.6-1.5,1.8-2,1.8-2.4h1.4v30.2Z"/><path d="M421.4,192v-.9l1.4-.2,2.3-.7a6.3,6.3,0,0,0,2-1.3,2.9,2.9,0,0,0,.9-2.2,10.2,10.2,0,0,0-.5-2.8c-.3-1.2-.8-2.8-1.4-4.7s-1.4-3.9-2.2-6.2-1.7-4.6-2.7-7h-25l-2.8,6.8-2.6,6.6c-1.3,3.4-2,5.8-2,7.1a3,3,0,0,0,.7,2.1,7.7,7.7,0,0,0,2,1.3,10.3,10.3,0,0,0,2.5.7l2.6.5v.9H376.5v-1a9.9,9.9,0,0,0,4.2-1.4,6.4,6.4,0,0,0,2.1-1.4,18.6,18.6,0,0,0,2.1-3.1,57,57,0,0,0,3.7-7.2l4.4-10.1,5.1-11.7,5.1-12.1,4.8-11.3-.9-2.1a19.2,19.2,0,0,0,3.1-1.8,17,17,0,0,0,2.4-2.2,15.7,15.7,0,0,0,1.7-2.1l1.1-1.7h.7c2,5.2,3.9,10.1,5.6,14.8s3.5,9.2,5.1,13.6l4.6,12.6c1.5,4,3,8,4.6,12a34.2,34.2,0,0,0,1.9,4.8l2,4.4a5,5,0,0,0,.9,1.3,10.1,10.1,0,0,0,1.7,2,11.4,11.4,0,0,0,2.7,1.7,10.6,10.6,0,0,0,3.8.9V192Zm-12.3-57.2-1.7,3.9c-.7,1.8-1.6,3.9-2.7,6.4l-3.5,8.6L397,164h23.5l-3.3-8.5c-1.1-2.8-2.1-5.5-3.2-8.2l-2.8-7.1Q409.9,136.9,409.1,134.8Z"/><path d="M523.9,126.8a8.4,8.4,0,0,0-3.2,4.1,13.4,13.4,0,0,0-.9,5.2c-.1,2.6-.2,5.3-.4,8.2s-.2,5.9-.3,9.5-.1,7.7-.1,11.9v12.8c0,2.3.1,4.5.1,6.8v6.1a.9.9,0,0,1-.3.7l-.7.2a2.4,2.4,0,0,1-1.7-1l-14.6-16.9-12.6-14.8-11.7-13.7L465.3,132v39.8c0,3.2.1,6.1.2,8.7a17.6,17.6,0,0,0,1.2,5.8,6.8,6.8,0,0,0,3.3,3.2,22.2,22.2,0,0,0,6,1.6v.9H452.8v-.9a19.5,19.5,0,0,0,4.6-1.2,7.5,7.5,0,0,0,3.6-3,14.8,14.8,0,0,0,1.7-5.8c.2-2.6.4-5.7.5-9.3s.2-5.9.3-9.6.1-7.6.1-11.8V138.9c0-1.3,0-2.8-.1-4.6a11.4,11.4,0,0,0-1.3-4.5,7.3,7.3,0,0,0-2.5-2.7,8.5,8.5,0,0,0-3-1.5l-3.2-.6v-.9h19.1l44.8,52.2v-32c0-2.5-.1-4.9-.1-7.2a19,19,0,0,0-.9-5.5,8.7,8.7,0,0,0-3.3-4.3,17.4,17.4,0,0,0-7-2.3v-.9h23.4v.9A13.7,13.7,0,0,0,523.9,126.8Z"/><path d="M592,192H534.2v-.9a18.9,18.9,0,0,0,4.4-1.3,8.2,8.2,0,0,0,3.4-2.3,5.4,5.4,0,0,0,.7-1.7c.2-.7.4-1.5.6-2.5l.3-2.9c0-1.1.1-2.1.1-3.1v-3.6c.1-1.5.1-3.2.1-4.9s.1-3.7.1-5.6V139.4c0-1.2-.1-2.3-.1-3.5s-.1-2.3-.2-3.4a22.6,22.6,0,0,0-.4-2.9,5.9,5.9,0,0,0-.9-1.8,7.2,7.2,0,0,0-3.1-2l-4.1-.8v-.9h52.1l6.4,15.6-1,.4c-5.1-6.3-9.8-10.6-14.3-12.8a25.3,25.3,0,0,0-5.9-1.3,80,80,0,0,0-10.6-.6l-4.1.2a17.7,17.7,0,0,0-3.1.3c-.1,1-.2,3.1-.3,6.2s-.2,6.8-.2,10.9v6.1c0,1.6.1,3,.1,4v3.4h5.2l3.7-.2,3-.4a19.3,19.3,0,0,0,4.7-1.8,11.8,11.8,0,0,0,3.1-2.7,15,15,0,0,0,1.9-3.8,44.9,44.9,0,0,0,1.3-4.7h1.1v29.7h-1.1a33.6,33.6,0,0,0-2.3-6.2,18.8,18.8,0,0,0-3.3-4.9,12.6,12.6,0,0,0-3.6-2.1,17.6,17.6,0,0,0-5-1.1h-8.6a35.3,35.3,0,0,0-.2,3.9v11.3c0,1,.1,2,.1,2.9v2.3c.1,2,.2,3.9.4,5.7a7.6,7.6,0,0,0,1.1,4c.5.9,1.9,1.5,4,1.9a38,38,0,0,0,7,.6h4.1a48,48,0,0,0,5.2-.5,20,20,0,0,0,5.6-1.4,23.6,23.6,0,0,0,4.9-3.1,27.3,27.3,0,0,0,4.6-4.9,63.4,63.4,0,0,0,4.6-6.9l1,.3Z"/><path d="M317.6,278l-.8-.9-.7-.7-.8-1.2-1.6-2.4a41.4,41.4,0,0,1-2.3-3.5l-2.1-3-2.2-3.1c-.8-1-1.7-2.2-2.8-3.4s-2-2.1-3-3a7.3,7.3,0,0,0-3.4-1.7l-2-.3h-1.6v7.8c0,2.2,0,4.1.1,5.6s.1,2.7.1,3.7a4.6,4.6,0,0,0,.8,2.7,5.6,5.6,0,0,0,2.1,1.8,9.9,9.9,0,0,0,4.4,1v.7h-22v-.7a13.2,13.2,0,0,0,3.3-.8,6.3,6.3,0,0,0,2.5-1.6,3.2,3.2,0,0,0,.5-1.3,4.8,4.8,0,0,0,.3-1.8,15,15,0,0,0,.2-2.2c0-.8.1-1.6.1-2.3v-2.6c0-1.1,0-2.3.1-3.6V237.2c-.1-.9-.1-1.7-.2-2.4a6.6,6.6,0,0,0-.3-2.1,3.2,3.2,0,0,0-.7-1.3,5.1,5.1,0,0,0-2.3-1.5,19,19,0,0,0-3.1-.6v-.7H299c3.1,0,5.8.1,8.2.3a16.9,16.9,0,0,1,6.5,1.8,13.6,13.6,0,0,1,4.9,4.3,12.2,12.2,0,0,1,1.9,6.9,9.3,9.3,0,0,1-1,4.5,11.3,11.3,0,0,1-2.4,3.6,18.3,18.3,0,0,1-3.6,2.6,24.4,24.4,0,0,1-4.4,1.9v.2a7.6,7.6,0,0,1,2.3,1.8,29.6,29.6,0,0,1,2.1,2.6l3.9,5.6,3.8,5.4a19.1,19.1,0,0,0,4.9,5.2,13.1,13.1,0,0,0,5.6,2.1v.7Zm-6.8-42.8a11,11,0,0,0-5-4.2,13.5,13.5,0,0,0-3.4-1.1,15.8,15.8,0,0,0-3.8-.4h-3.8a1.9,1.9,0,0,1-.1.8c0,.2-.1.4-.1.7a7.6,7.6,0,0,1-.1,1.4,22.7,22.7,0,0,1-.1,2.4c0,1.6-.1,3.4-.1,5.5v13.3a42.7,42.7,0,0,0,5.2-.2,25.6,25.6,0,0,0,4.8-1,12.8,12.8,0,0,0,3.7-1.8,11,11,0,0,0,2.6-2.7,9.4,9.4,0,0,0,1.5-3.2,13.6,13.6,0,0,0,.5-3.6A10.9,10.9,0,0,0,310.8,235.2Z"/><path d="M364.8,278H335.4v-.5a8.6,8.6,0,0,0,2.3-.6,6.6,6.6,0,0,0,1.7-1.2l.3-.8.3-1.3c.1-.5.1-1,.2-1.5v-3.4a20.1,20.1,0,0,0,.1-2.5V249.4c0-.6-.1-1.2-.1-1.7a6.8,6.8,0,0,0-.2-1.5,3.6,3.6,0,0,0-.5-.9,3.3,3.3,0,0,0-1.5-1l-2.2-.4v-.5h26.6l3.3,7.9-.5.3a24.9,24.9,0,0,0-7.3-6.6l-3.1-.6a38.9,38.9,0,0,0-5.3-.3h-3.7c-.1.5-.1,1.6-.2,3.2v12.4h4.5l1.6-.2a13.3,13.3,0,0,0,2.4-1,4.7,4.7,0,0,0,1.5-1.3,6.9,6.9,0,0,0,1-1.9,18.3,18.3,0,0,0,.6-2.5h.6v15.2h-.6a13.5,13.5,0,0,0-1.1-3.2,10.8,10.8,0,0,0-1.7-2.5,7.8,7.8,0,0,0-1.8-1.1l-2.6-.5h-4.3a10.9,10.9,0,0,0-.1,2v8.4a26.4,26.4,0,0,0,.2,2.9,5.4,5.4,0,0,0,.5,2.1,3.4,3.4,0,0,0,2.1.9,20.2,20.2,0,0,0,3.6.3h2l2.7-.3a13.7,13.7,0,0,0,2.9-.7,11.7,11.7,0,0,0,2.5-1.6,18.9,18.9,0,0,0,2.3-2.5,30.4,30.4,0,0,0,2.3-3.5h.5Z"/><path d="M391.9,278v-.5h.7l1.1-.3a2.6,2.6,0,0,0,1.1-.7,1.4,1.4,0,0,0,.4-1.1c0-.3-.1-.7-.2-1.4l-.8-2.4-1.1-3.1-1.3-3.6H379c-.5,1.2-1,2.3-1.4,3.4s-.9,2.3-1.4,3.4a14.3,14.3,0,0,0-1,3.6,1.8,1.8,0,0,0,.4,1.1,3.3,3.3,0,0,0,1,.6l1.3.4,1.3.2v.5H369v-.5a4.8,4.8,0,0,0,2.1-.7l1.1-.7,1.1-1.6a32.5,32.5,0,0,0,1.8-3.7c.7-1.5,1.5-3.2,2.3-5.1s1.7-3.9,2.6-6,1.7-4.1,2.6-6.1,1.7-4,2.4-5.8l-.4-1.1a4.6,4.6,0,0,0,1.5-.9,4.3,4.3,0,0,0,1.2-1.1,4.4,4.4,0,0,0,.9-1.1,3.5,3.5,0,0,0,.6-.9h.4l2.8,7.6,2.6,6.9c.8,2.2,1.6,4.4,2.4,6.4s1.5,4.1,2.3,6.2a19.4,19.4,0,0,0,1,2.4l1,2.3.4.6a2.8,2.8,0,0,0,.9,1,3.4,3.4,0,0,0,1.4.9,3.8,3.8,0,0,0,1.9.4v.6Zm-6.3-29.1-.9,2c-.3.9-.8,1.9-1.3,3.2s-1.2,2.8-1.8,4.4l-2.2,5.2h12c-.6-1.4-1.1-2.8-1.7-4.3s-1.1-2.8-1.6-4.1-1-2.6-1.5-3.7S385.9,249.6,385.6,248.9Z"/><path d="M440.7,278H409.8v-.5a10.5,10.5,0,0,0,2.4-.6,5.2,5.2,0,0,0,1.9-1.2l.4-.8.3-1.3c0-.5.1-1,.1-1.5a8.6,8.6,0,0,0,.1-1.6v-1.8a21.8,21.8,0,0,1,.1-2.5V249.6a9.1,9.1,0,0,0-.1-1.7,5.9,5.9,0,0,0-.2-1.3,1.9,1.9,0,0,0-.4-.9,5.7,5.7,0,0,0-1.8-1.2,10.5,10.5,0,0,0-2.4-.6v-.5h15.3v.5l-1.5.3a5.2,5.2,0,0,0-1.6.6,3.7,3.7,0,0,0-1.3,1.2,3.7,3.7,0,0,0-.6,2.1c-.1,1.1-.1,2.2-.1,3.1v2.7a26.2,26.2,0,0,0-.1,2.8v8.8a20.9,20.9,0,0,0,.1,2.5v3c0,1,.1,2,.1,2.9a3.6,3.6,0,0,0,.5,2.1c.1.2.4.3.8.5l1.4.4,1.7.3h5l2.1-.2,1.9-.4a11.9,11.9,0,0,0,3.2-1.4,14.2,14.2,0,0,0,2.2-2,12.8,12.8,0,0,0,1.5-2.5L442,268h.5Z"/><path d="M477.9,252.4l-.9-1.8c-.4-.6-.7-1.2-1.1-1.7a9.7,9.7,0,0,0-1.1-1.5,5.1,5.1,0,0,0-3.1-2.3,12.1,12.1,0,0,0-3-.4h-6.1v3.2c0,1.4-.1,2.8-.1,4.4v18.8c0,.9.1,1.8.1,2.6a3.2,3.2,0,0,0,.5,1.8,3.8,3.8,0,0,0,2,1.5l2.4.5v.5H451.9v-.5l2.4-.4a6.1,6.1,0,0,0,2.2-1.6,1.5,1.5,0,0,0,.4-.8c.1-.4.1-.8.2-1.3s.1-.9.1-1.5v-3.3c0-.8.1-1.6.1-2.5V244.7h-6.1a12.1,12.1,0,0,0-3,.4,5.9,5.9,0,0,0-2.2,1.4,4.7,4.7,0,0,0-.9,1,9.7,9.7,0,0,0-1,1.5,9.9,9.9,0,0,0-1.1,1.7l-.8,1.7h-.4l1.4-9.1,2.1.3,2.7.2h24l2.6-.2,2.2-.6,1.5,9.4Z"/><path d="M513,244.6a7.1,7.1,0,0,0-1.8,1.2,14.5,14.5,0,0,0-1.6,1.8L508,250l-1.6,2.5c-.7,1.1-1.4,2.1-2.1,3.3l-2.1,3.2-1.6,2.4v9.7c0,.9.1,1.8.1,2.7a2.6,2.6,0,0,0,.5,1.8A3.1,3.1,0,0,0,503,277l2.2.5v.5H490.4v-.5l2.2-.4a5,5,0,0,0,2-1.5,2,2,0,0,0,.4-.8c.1-.4.1-.9.2-1.3a9.2,9.2,0,0,1,.1-1.6v-1.6c0-.9,0-1.9.1-3.2v-4.5l-.6-.9-1.2-1.9-1.5-2.5-1.7-2.7-1.5-2.5-1.2-1.9-1.7-2.5a17.3,17.3,0,0,0-1.5-2,8.7,8.7,0,0,0-1.5-1.3,3.4,3.4,0,0,0-1.7-.5v-.5h14.6v.5h-1.5l-1.3.3-1,.6a1.3,1.3,0,0,0-.4,1,4,4,0,0,0,.7,1.9c.4.9.9,1.7,1.4,2.6l1.3,2.1,1.6,2.6,1.7,2.8,1.7,2.7,1.5-2.3,1.9-2.9,1.8-2.8c.5-.9,1-1.6,1.2-2.1l.6-.9.5-1.1a3.7,3.7,0,0,0,.5-1.1,4.3,4.3,0,0,0,.2-1.1,2.1,2.1,0,0,0-.4-1.2,2.1,2.1,0,0,0-1-.6l-1.3-.4-1.4-.2v-.5h11.1v.5A5.2,5.2,0,0,0,513,244.6Z"/><path d="M110.6,278.6V261.4l5.1-.3v17.5h.9V261.1l5.2-.3v17.8h.8V260.8l6.1-.3v18.1h66.4V42.1L145.4,21.4h-.1L95.6,42.1v73.6L61.7,101.5h-.1L27.4,115.8V278.6ZM101.9,55.8l35.2-11.9v8.2L101.9,62Zm0,12.2,35.2-11.3v8.1l-35.2,9.4Zm0,12.1,35.2-10.5v7.9l-35.2,8.8Zm0,12.2,35.2-9.9v7.8l-35.2,8.3Zm0,12.2,35.2-9.2v7.6l-35.2,7.8Zm0,12.2,35.2-8.6v7.6l-35.2,7.1Zm0,12.1,35.2-7.9v7.5L101.9,135Zm0,12.2,35.2-7.2v7.3l-35.2,6.1Zm0,12.2,35.2-6.6v7.2l-35.2,5.5Zm0,12.1,35.2-5.8v7l-35.2,5Zm0,12.2,35.2-5.2v6.9l-35.2,4.5Zm0,12.2,35.2-4.5v6.7l-35.2,3.9Zm0,12.1,35.2-3.8v6.6L101.9,208Zm0,12.2,35.2-3.2v6.5l-35.2,2.9Zm0,12.2,35.2-2.5V230l-35.2,2.3Zm0,12.1,35.2-1.8v6.2l-35.2,1.8Zm-46,22.9-24.2,2.5v-4.2L55.9,257Zm0-12.6-24.2,2.9v-4.3l24.2-3Zm0-12.6-24.2,3.3V235l24.2-3.5Zm0-12.6-24.2,3.7v-4.3l24.2-4Zm0-12.6-24.2,4.1v-4.3l24.2-4.5Zm0-12.6-24.2,4.5v-4.3l24.2-5.1Zm0-12.6-24.2,4.9v-4.3l24.2-5.6Zm0-12.6-24.2,5.3V174l24.2-6.1Zm0-12.5-24.2,5.6v-4.3l24.2-6.6Zm0-12.6-24.2,6v-4.3l24.2-7.2Zm0-12.6-24.2,6.4v-4.3l24.2-7.7Zm0-12.6-24.2,6.7v-4.2L55.9,117Z"/><path d="M255.3,278.6V148.7L228,137.3h0l-27.3,11.4V278.6Zm-31.9-13.3-19.3,1.3v-3.4l19.3-1.3Zm0-10.1-19.3,1.7v-3.4l19.3-1.8Zm0-10.1-19.3,2v-3.4l19.3-2.2Zm0-10.1-19.3,2.4V234l19.3-2.7Zm0-10.1-19.3,2.8v-3.4l19.3-3.2Zm0-10.1-19.3,3.1v-3.3l19.3-3.7Zm0-10.1-19.3,3.5v-3.4l19.3-4.1Zm0-10.1-19.3,3.9v-3.4l19.3-4.7Zm0-10.1-19.3,4.3v-3.4l19.3-5.2Zm0-10.1L204.1,179v-3.4l19.3-5.6Zm0-10.1-19.3,5v-3.4l19.3-6.1Zm0-10.1-19.3,5.4v-3.4l19.3-6.6Z"/><rect x="99.8" y="257" width="45.2" height="21.64"/><line class="cls-1" x1="281" y1="212" x2="593" y2="212"/></svg>