<svg id="Layer_1" data-name="Layer 1" xmlns="http://www.w3.org/2000/svg" viewBox="0 0 622 300"><defs><style>.cls-1,.cls-2{fill:#fff;}.cls-2{stroke:#fff;stroke-miterlimit:10;stroke-width:3px;}</style></defs><title>cane-realty-white</title><path class="cls-1" d="M368.3,126.5a43.4,43.4,0,0,0-5.2-12.1,44.5,44.5,0,0,0-8.3-9.9A37.3,37.3,0,0,0,344,97.9a33.8,33.8,0,0,0-12.7-2.4,32.8,32.8,0,0,0-16.6,4.2,37.8,37.8,0,0,0-12.2,11,51.3,51.3,0,0,0-7.5,15.6,60.3,60.3,0,0,0,.1,36,44.7,44.7,0,0,0,7.9,14.8,36.3,36.3,0,0,0,12.4,9.9,35.6,35.6,0,0,0,16.1,3.6,34.1,34.1,0,0,0,13.2-2.5,40.9,40.9,0,0,0,19-16.4,35.6,35.6,0,0,0,4.5-11.2h1.6l-.4,29.6h-1.6a47.8,47.8,0,0,0-3.4-4.2c-1.1-1.2-2-1.9-2.4-1.9a12.5,12.5,0,0,0-2.4,1.4,35.4,35.4,0,0,1-6.2,3.1,48.7,48.7,0,0,1-9.9,3,58.8,58.8,0,0,1-13.3,1.3,66.6,66.6,0,0,1-22.6-3.6,48,48,0,0,1-17.2-10.1,44,44,0,0,1-10.9-15.6,52,52,0,0,1-3.7-20c0-1.6.1-3.5.3-5.6a46.5,46.5,0,0,1,1.2-6.6,68.7,68.7,0,0,1,2.4-7.3,56.6,56.6,0,0,1,4-7.7,47.4,47.4,0,0,1,7-8.8,43.8,43.8,0,0,1,9.9-7.3,51.1,51.1,0,0,1,12.8-5.1,60.5,60.5,0,0,1,16-1.9,58.6,58.6,0,0,1,14.1,1.5,71.7,71.7,0,0,1,10.1,3.2,37.3,37.3,0,0,1,6.2,3.3,9.5,9.5,0,0,0,2.5,1.4,2.9,2.9,0,0,0,1-.6l1.6-1.4a19.6,19.6,0,0,0,1.8-2.1l1.8-2.3h1.4v30.2Z"/><path class="cls-1" d="M418.4,192.3v-1l1.4-.2,2.3-.6a9,9,0,0,0,2-1.4,2.6,2.6,0,0,0,.9-2.1,9.6,9.6,0,0,0-.5-2.8c-.3-1.3-.8-2.9-1.4-4.7l-2.2-6.2c-.8-2.3-1.7-4.6-2.7-7.1h-25l-2.8,6.9c-.9,2.1-1.7,4.3-2.6,6.5s-2,5.8-2,7.2a2.7,2.7,0,0,0,.7,2,5.8,5.8,0,0,0,2,1.3,10.4,10.4,0,0,0,2.5.8l2.6.4v1H373.5v-1.1a9.9,9.9,0,0,0,4.2-1.3l2.1-1.4a36.5,36.5,0,0,0,2.1-3.1,68.2,68.2,0,0,0,3.7-7.3c1.3-3,2.8-6.3,4.4-10.1s3.4-7.6,5.1-11.6l5.1-12.1,4.8-11.4-.9-2.1a30.7,30.7,0,0,0,3.1-1.7,26.1,26.1,0,0,0,2.4-2.2,26.5,26.5,0,0,0,1.7-2.2l1.1-1.7h.7c2,5.2,3.9,10.2,5.6,14.9l5.1,13.5,4.6,12.6c1.5,4.1,3,8.1,4.6,12a36.1,36.1,0,0,0,1.9,4.9c.6,1.3,1.3,2.7,2,4.4a7.7,7.7,0,0,0,.9,1.3,9.7,9.7,0,0,0,1.7,1.9,9.1,9.1,0,0,0,2.7,1.8,8.9,8.9,0,0,0,3.8.8v1.2Zm-12.3-57.2c-.4.8-1,2.1-1.7,3.9s-1.6,3.9-2.7,6.4l-3.5,8.5L394,164.2h23.5l-3.3-8.4c-1.1-2.9-2.1-5.6-3.2-8.2s-2-5-2.8-7.2S406.6,136.5,406.1,135.1Z"/><path class="cls-1" d="M520.9,127.1a8.1,8.1,0,0,0-3.2,4,14,14,0,0,0-.9,5.3c-.1,2.5-.2,5.2-.4,8.1s-.2,5.9-.3,9.6-.1,7.6-.1,11.8v12.8c0,2.3.1,4.6.1,6.9v6.1a.9.9,0,0,1-.3.6c-.1.2-.4.2-.7.2a2.6,2.6,0,0,1-1.7-.9l-14.6-17-12.6-14.7-11.7-13.8c-3.9-4.4-7.9-9.1-12.2-13.8v39.8c0,3.2.1,6.1.2,8.6a17.6,17.6,0,0,0,1.2,5.8,7.5,7.5,0,0,0,3.3,3.3,19.3,19.3,0,0,0,6,1.5v1H449.8v-1a19.5,19.5,0,0,0,4.6-1.2,7.9,7.9,0,0,0,3.6-2.9,15.4,15.4,0,0,0,1.7-5.9c.2-2.6.4-5.6.5-9.2s.2-5.9.3-9.6.1-7.6.1-11.8V139.1c0-1.2,0-2.7-.1-4.6a11.4,11.4,0,0,0-1.3-4.5,9.3,9.3,0,0,0-2.5-2.7,10.3,10.3,0,0,0-3-1.4l-3.2-.6v-1h19.1l44.8,52.3V144.5c0-2.5-.1-4.9-.1-7.2a17.7,17.7,0,0,0-.9-5.4,8.3,8.3,0,0,0-3.3-4.3,15.9,15.9,0,0,0-7-2.3v-1h23.4v1A13.7,13.7,0,0,0,520.9,127.1Z"/><path class="cls-1" d="M589,192.3H531.2v-1a15,15,0,0,0,4.4-1.2,9.5,9.5,0,0,0,3.4-2.4,4.8,4.8,0,0,0,.7-1.6c.2-.7.4-1.6.6-2.5l.3-3c0-1,.1-2.1.1-3.1V174c.1-1.6.1-3.2.1-5s.1-3.6.1-5.5V139.6c0-1.1-.1-2.3-.1-3.5s-.1-2.3-.2-3.4a20.9,20.9,0,0,0-.4-2.8,6.7,6.7,0,0,0-.9-1.9,6.9,6.9,0,0,0-3.1-1.9,24.7,24.7,0,0,0-4.1-.8v-1h52.1l6.4,15.6-1,.5c-5.1-6.4-9.8-10.7-14.3-12.9a25.3,25.3,0,0,0-5.9-1.3,81.8,81.8,0,0,0-10.6-.5h-4.1l-3.1.3q-.1,1.5-.3,6.3c-.1,3.1-.2,6.7-.2,10.9v6c0,1.7.1,3,.1,4v3.5h5.2l3.7-.2,3-.5a13.6,13.6,0,0,0,4.7-1.8,9.1,9.1,0,0,0,3.1-2.7,14.3,14.3,0,0,0,1.9-3.7,40.9,40.9,0,0,0,1.3-4.8h1.1v29.7h-1.1a33.6,33.6,0,0,0-2.3-6.2,19.8,19.8,0,0,0-3.3-4.8,12.8,12.8,0,0,0-3.6-2.2,17.7,17.7,0,0,0-5-1l-2.3-.2h-6.3a35.3,35.3,0,0,0-.2,3.9v11.3c0,1,.1,1.9.1,2.9v2.3c.1,2,.2,3.9.4,5.7a8,8,0,0,0,1.1,4c.5.9,1.9,1.5,4,1.9a38.4,38.4,0,0,0,7,.5h4.1a47.3,47.3,0,0,0,5.2-.4,24.2,24.2,0,0,0,5.6-1.5,17.5,17.5,0,0,0,4.9-3.1,30.3,30.3,0,0,0,4.6-4.8,63.4,63.4,0,0,0,4.6-6.9l1,.2Z"/><path class="cls-1" d="M314.6,278.3a3.1,3.1,0,0,1-.8-1l-.7-.7a4.8,4.8,0,0,1-.8-1.2l-1.6-2.3-2.3-3.5-2.1-3.1-2.2-3c-.8-1.1-1.7-2.2-2.8-3.5s-2-2-3-3a8.4,8.4,0,0,0-3.4-1.7,8.7,8.7,0,0,0-2-.2h-1.6v7.8c0,2.1,0,4,.1,5.5s.1,2.7.1,3.8a4.5,4.5,0,0,0,.8,2.6,4.9,4.9,0,0,0,2.1,1.8,9.7,9.7,0,0,0,4.4,1.1v.7h-22v-.7l3.3-.8a6.5,6.5,0,0,0,2.5-1.7,3.3,3.3,0,0,0,.5-1.2,5.8,5.8,0,0,0,.3-1.9,15,15,0,0,0,.2-2.2c0-.8.1-1.5.1-2.2v-2.7c0-1.1,0-2.3.1-3.6V237.4c-.1-.8-.1-1.6-.2-2.4a6.4,6.4,0,0,0-.3-2,3.7,3.7,0,0,0-.7-1.4,4.3,4.3,0,0,0-2.3-1.4,18,18,0,0,0-3.1-.7v-.7H296c3.1,0,5.8.1,8.2.3a15.4,15.4,0,0,1,6.5,1.9,12.8,12.8,0,0,1,4.9,4.3,12.1,12.1,0,0,1,1.9,6.8,10,10,0,0,1-1,4.6,12.1,12.1,0,0,1-2.4,3.5,15.4,15.4,0,0,1-3.6,2.7,33.8,33.8,0,0,1-4.4,1.8v.3a9.1,9.1,0,0,1,2.3,1.7l2.1,2.6,3.9,5.7,3.8,5.3a19.7,19.7,0,0,0,4.9,5.3,13.1,13.1,0,0,0,5.6,2.1v.7Zm-6.8-42.8a11.8,11.8,0,0,0-5-4.3,19.3,19.3,0,0,0-3.4-1.1,23.4,23.4,0,0,0-3.8-.3h-2.4l-1.4.2a1.5,1.5,0,0,1-.1.7c0,.2-.1.5-.1.8a6.6,6.6,0,0,1-.1,1.3c0,.6,0,1.4-.1,2.5s-.1,3.4-.1,5.4v13.4l5.2-.2a25.6,25.6,0,0,0,4.8-1,12.7,12.7,0,0,0,6.3-4.5,10.4,10.4,0,0,0,1.5-3.2,14.9,14.9,0,0,0,.5-3.6A10.7,10.7,0,0,0,307.8,235.5Z"/><path class="cls-1" d="M361.8,278.3H332.4v-.5a8.6,8.6,0,0,0,2.3-.6,6.6,6.6,0,0,0,1.7-1.2,4.6,4.6,0,0,0,.3-.9,13,13,0,0,0,.3-1.3c.1-.4.1-.9.2-1.5v-3.4a19.3,19.3,0,0,0,.1-2.5V249.7c0-.6-.1-1.2-.1-1.8a5.9,5.9,0,0,0-.2-1.4,3,3,0,0,0-.5-1,4.4,4.4,0,0,0-1.5-1l-2.2-.4v-.4h26.6l3.3,7.9-.5.2a24.3,24.3,0,0,0-7.3-6.5,11,11,0,0,0-3.1-.7,38.9,38.9,0,0,0-5.3-.3h-2.1l-1.6.2c-.1.5-.1,1.5-.2,3.1v12.5h4.5l1.6-.2a8.5,8.5,0,0,0,2.4-.9,6.7,6.7,0,0,0,1.5-1.4,5.7,5.7,0,0,0,1-1.9,14,14,0,0,0,.6-2.4h.6v15.1h-.6a15.2,15.2,0,0,0-1.1-3.2,9.9,9.9,0,0,0-1.7-2.4,5.4,5.4,0,0,0-1.8-1.1,7.1,7.1,0,0,0-2.6-.5h-4.3a9.8,9.8,0,0,0-.1,1.9v8.4a28.3,28.3,0,0,0,.2,3,4.4,4.4,0,0,0,.5,2c.3.5,1,.8,2.1,1a20.2,20.2,0,0,0,3.6.3h2l2.7-.2a13.8,13.8,0,0,0,2.9-.8,11,11,0,0,0,2.5-1.5,18.9,18.9,0,0,0,2.3-2.5c.7-1,1.5-2.2,2.3-3.6l.5.2Z"/><path class="cls-1" d="M388.9,278.3v-.5h.7l1.1-.3a4.1,4.1,0,0,0,1.1-.7,1.5,1.5,0,0,0,.4-1.1,11.5,11.5,0,0,0-.2-1.4c-.2-.7-.5-1.5-.8-2.4s-.7-2-1.1-3.2-.9-2.3-1.3-3.6H376c-.5,1.2-1,2.4-1.4,3.5l-1.4,3.3a15.9,15.9,0,0,0-1,3.7,1.8,1.8,0,0,0,.4,1l1,.7,1.3.4,1.3.2v.5H366v-.6a6.5,6.5,0,0,0,2.1-.6l1.1-.7,1.1-1.6c.5-.9,1.1-2.1,1.8-3.7l2.3-5.2L377,260c.8-2.1,1.7-4.1,2.6-6.2s1.7-4,2.4-5.8l-.4-1,1.5-.9,1.2-1.1a4.7,4.7,0,0,0,.9-1.2l.6-.8h.4c1,2.6,1.9,5.2,2.8,7.6s1.8,4.6,2.6,6.9l2.4,6.4c.7,2,1.5,4.1,2.3,6.1a21.6,21.6,0,0,0,1,2.5l1,2.2.4.7.9,1,1.4.9a5.3,5.3,0,0,0,1.9.4v.6Zm-6.3-29.2-.9,2c-.3.9-.8,2-1.3,3.3s-1.2,2.7-1.8,4.3l-2.2,5.3h12c-.6-1.4-1.1-2.9-1.7-4.3s-1.1-2.9-1.6-4.2-1-2.5-1.5-3.6S382.9,249.8,382.6,249.1Z"/><path class="cls-1" d="M437.7,278.3H406.8v-.5a10.5,10.5,0,0,0,2.4-.6,5.2,5.2,0,0,0,1.9-1.2,3.9,3.9,0,0,0,.4-.9,13,13,0,0,0,.3-1.3c0-.4.1-.9.1-1.5a7.6,7.6,0,0,0,.1-1.5v-1.9a22.6,22.6,0,0,1,.1-2.5V249.8a8.1,8.1,0,0,0-.1-1.6,5.1,5.1,0,0,0-.2-1.3,1.9,1.9,0,0,0-.4-.9,4.6,4.6,0,0,0-1.8-1.3l-2.4-.6v-.4h15.3v.4l-1.5.3-1.6.6a4,4,0,0,0-1.9,3.4c-.1,1.1-.1,2.1-.1,3v2.8a25.3,25.3,0,0,0-.1,2.8v8.7a22.6,22.6,0,0,0,.1,2.6v3c0,1,.1,2,.1,2.9a4.1,4.1,0,0,0,.5,2.1,1.9,1.9,0,0,0,.8.4l1.4.4a4.7,4.7,0,0,0,1.7.3l2,.2h3l2.1-.2,1.9-.4a9.4,9.4,0,0,0,3.2-1.4,8.3,8.3,0,0,0,2.2-2,9.7,9.7,0,0,0,1.5-2.4l1.2-2.8.5.2Z"/><path class="cls-1" d="M474.9,252.7l-.9-1.8-1.1-1.8-1.1-1.5a4.5,4.5,0,0,0-.9-1,4.6,4.6,0,0,0-2.2-1.3,12.6,12.6,0,0,0-3-.3h-6.1v3.3c0,1.4-.1,2.8-.1,4.3v18.8c0,.9.1,1.8.1,2.7a3.9,3.9,0,0,0,.5,1.8,3.2,3.2,0,0,0,2,1.4l2.4.6v.5H448.9v-.5l2.4-.5a4.4,4.4,0,0,0,2.2-1.6c.2-.1.3-.4.4-.8s.1-.8.2-1.2.1-1,.1-1.5v-3.4c0-.7.1-1.6.1-2.5V244.9h-6.1a8.7,8.7,0,0,0-3,.4,5.6,5.6,0,0,0-2.2,1.3l-.9,1-1,1.5a9.9,9.9,0,0,0-1.1,1.7,14.2,14.2,0,0,0-.8,1.8l-.4-.2,1.4-9.1,2.1.4,2.7.2h24a8.8,8.8,0,0,0,2.6-.3l2.2-.5,1.5,9.3Z"/><path class="cls-1" d="M510,244.8a5.5,5.5,0,0,0-1.8,1.3,14.5,14.5,0,0,0-1.6,1.8l-1.6,2.4-1.6,2.5-2.1,3.2-2.1,3.2-1.6,2.4v9.7c0,.9.1,1.8.1,2.7a3.1,3.1,0,0,0,.5,1.9,3.6,3.6,0,0,0,1.8,1.4l2.2.5v.5H487.4v-.5a10.3,10.3,0,0,0,2.2-.5,5,5,0,0,0,2-1.5c.2-.1.3-.4.4-.8s.1-.8.2-1.3a7.6,7.6,0,0,1,.1-1.5v-1.6c0-.9,0-2,.1-3.2v-4.5l-.6-.9-1.2-1.9c-.4-.8-.9-1.6-1.5-2.6l-1.7-2.7c-.5-.8-1-1.7-1.5-2.4l-1.2-1.9-1.7-2.6a15.7,15.7,0,0,0-1.5-1.9,5.8,5.8,0,0,0-1.5-1.3,3.5,3.5,0,0,0-1.7-.6v-.4h14.6v.4l-1.5.2a2.8,2.8,0,0,0-1.3.3,1.7,1.7,0,0,0-1,.6,1.1,1.1,0,0,0-.4,1,4.4,4.4,0,0,0,.7,1.9l1.4,2.5,1.3,2.1,1.6,2.6,1.7,2.8,1.7,2.8,1.5-2.4,1.9-2.8,1.8-2.9c.5-.9,1-1.6,1.2-2.1l.6-.9c.2-.3.3-.7.5-1a6.1,6.1,0,0,0,.5-1.2,3.6,3.6,0,0,0,.2-1,2.1,2.1,0,0,0-.4-1.2l-1-.7a5,5,0,0,0-1.3-.3l-1.4-.3v-.4h11.1v.4A10.5,10.5,0,0,0,510,244.8Z"/><path class="cls-1" d="M107.6,278.9V261.6l5.1-.2v17.5h.9V261.3l5.2-.2v17.8h.8V261l6.1-.3v18.2h66.4V42.4L142.4,21.7h-.1L92.6,42.4v73.5L58.7,101.8h-.1L24.4,116V278.9ZM98.9,56.1l35.2-12v8.3L98.9,62.2Zm0,12.1L134.1,57v8.1L98.9,74.4Zm0,12.2,35.2-10.6v8L98.9,86.6Zm0,12.2,35.2-9.9v7.8L98.9,98.7Zm0,12.1,35.2-9.2v7.7l-35.2,7.7Zm0,12.2,35.2-8.6v7.6l-35.2,7.2Zm0,12.2,35.2-7.9v7.4l-35.2,6.6Zm0,12.1,35.2-7.2v7.3l-35.2,6.1Zm0,12.2,35.2-6.5V154l-35.2,5.6Zm0,12.2,35.2-5.9v7l-35.2,5Zm0,12.1,35.2-5.1v6.8l-35.2,4.5Zm0,12.2,35.2-4.5v6.7l-35.2,4Zm0,12.2,35.2-3.9v6.6l-35.2,3.5Zm0,12.2,35.2-3.2v6.4l-35.2,2.9Zm0,12.1,35.2-2.5v6.3l-35.2,2.4Zm0,12.2,35.2-1.8v6.1l-35.2,1.9Zm-46,22.9L28.7,264v-4.3l24.2-2.5Zm0-12.6-24.2,2.8v-4.2l24.2-3Zm0-12.6-24.2,3.2v-4.2l24.2-3.5Zm0-12.6-24.2,3.6v-4.2L52.9,219Zm0-12.6-24.2,4v-4.2l24.2-4.6Zm0-12.6-24.2,4.4v-4.2l24.2-5.1Zm0-12.6-24.2,4.8v-4.2l24.2-5.6Zm0-12.6-24.2,5.2v-4.2l24.2-6.2Zm0-12.6-24.2,5.6v-4.2l24.2-6.7Zm0-12.6-24.2,6v-4.2l24.2-7.2Zm0-12.6-24.2,6.4v-4.2L52.9,130Zm0-12.6-24.2,6.8v-4.3l24.2-8.2Z"/><path class="cls-1" d="M252.3,278.9v-130L225,137.6h0l-27.3,11.3v130Zm-31.9-13.4-19.3,1.3v-3.4l19.3-1.3Zm0-10.1-19.3,1.7v-3.4l19.3-1.8Zm0-10.1-19.3,2.1V244l19.3-2.3Zm0-10.1-19.3,2.4v-3.3l19.3-2.8Zm0-10.1-19.3,2.8v-3.4l19.3-3.2Zm0-10.1-19.3,3.2v-3.4l19.3-3.7Zm0-10.1-19.3,3.6v-3.4l19.3-4.2Zm0-10.1-19.3,3.9v-3.3l19.3-4.7Zm0-10.1L201.1,189v-3.4l19.3-5.1Zm0-10.1-19.3,4.7v-3.4l19.3-5.6Zm0-10.1-19.3,5.1v-3.4l19.3-6.1Zm0-10.1-19.3,5.4v-3.4l19.3-6.5Z"/><rect class="cls-1" x="96.8" y="257.2" width="45.2" height="21.64"/><line class="cls-2" x1="278" y1="212.3" x2="590" y2="212.3"/></svg>